<svg xmlns="http://www.w3.org/2000/svg" viewBox="0 15.699999809265137 168.85000610351562 29.299999237060547" data-asc="0.9" width="168.85000610351562" height="29.299999237060547"><defs/><g fill="#ffffff"><g transform="translate(0, 0)"><path d="M13.25 34.35Q13.25 34.35 13.40 34.35Q13.55 34.35 13.78 34.35Q14 34.35 14.25 34.35Q14.53 34.35 14.76 34.35Q15 34.35 15.15 34.35Q15.30 34.35 15.30 34.35Q15.30 34.75 15.30 35.74Q15.30 36.73 15.30 37.95Q15.30 39.17 15.30 40.34Q15.30 41.50 15.30 42.25Q15.30 43 15.30 43Q15.30 43 15.30 43Q15.30 43 15.30 43Q15.30 43 15.30 43Q15.30 43 16.11 43Q16.93 43 18.20 43Q19.48 43 20.90 43Q22.33 43 23.60 43Q24.88 43 25.69 43Q26.50 43 26.50 43Q26.50 43 26.50 43Q26.50 43 26.50 43Q26.50 43 26.50 43Q26.50 43 26.50 42.21Q26.50 41.42 26.50 40.51Q26.50 39.60 26.50 39.25Q26.50 38.98 26.50 38.71Q26.50 38.45 26.50 38.06Q26.50 37.67 26.50 37.08Q26.50 36.48 26.50 35.55Q26.50 35.55 26.50 35.55Q26.50 35.55 26.50 35.55Q26.50 35.55 26.50 35.55Q26.50 35.55 26.50 35.02Q26.50 34.50 26.50 33.80Q26.50 33.10 26.50 32.58Q26.50 32.05 26.50 32.05L28.50 32.05Q28.50 33.27 28.50 34.76Q28.50 36.25 28.50 37.91Q28.50 39.58 28.50 41.36Q28.50 43.15 28.50 45Q28.50 45 28.50 45Q28.50 45 28.50 45Q28.50 45 28.50 45Q28.50 45 28.50 45Q28.50 45 28.50 45Q28.50 45 28.50 45Q28.50 45 28.50 45Q28.50 45 28.50 45Q28.50 45 27.43 45Q26.35 45 24.65 45Q22.95 45 21.03 45Q19.10 45 17.36 45Q15.63 45 14.49 45Q13.35 45 13.25 45Q13.25 45 13.25 45Q13.25 45 13.25 45Q13.25 45 13.25 45Q13.25 45 13.25 45Q13.25 45 13.25 45Q13.25 45 13.25 45Q13.25 45 13.25 45Q13.25 45 13.25 44.70Q13.25 44.40 13.25 44Q13.25 43.60 13.25 43.30Q13.25 43 13.25 43Q13.25 43 13.25 43Q13.25 43 13.25 43Q13.25 43 13.25 43Q13.25 42 13.25 41.01Q13.25 40.02 13.25 39.09Q13.25 38.15 13.25 37.30Q13.25 36.45 13.25 35.70Q13.25 34.95 13.25 34.35M0 31.05L2 31.05Q2 31.05 2 31.91Q2 32.77 2 34.14Q2 35.50 2 37.02Q2 38.55 2 39.91Q2 41.27 2 42.14Q2 43 2 43Q2 43 2 43Q2 43 2 43Q2 43 2 43Q2 43 2 43Q2 43 2 43Q2 43 2 43Q2 43 2 43Q2 43 2 43Q2 43 2 43Q2 43 2 43Q2 43 2 43Q2 43 2 43Q2 43 2 43Q2 43 2.91 43Q3.83 43 5.26 43Q6.70 43 8.30 43Q9.90 43 11.34 43Q12.78 43 13.69 43Q14.60 43 14.60 43Q14.60 43.48 14.60 43.99Q14.60 44.50 14.60 45Q14.60 45 14.60 45Q14.60 45 14.60 45Q14.60 45 14.60 45Q14.60 45 14.60 45Q14.60 45 14.60 45Q14.60 45 13.55 45Q12.50 45 10.84 45Q9.18 45 7.30 45Q5.42 45 3.76 45Q2.10 45 1.05 45Q0 45 0 45Q0 45 0 45Q0 45 0 45Q0 45 0 45Q0 45 0 45Q0 45 0 43.99Q0 42.98 0 41.39Q0 39.80 0 38.02Q0 36.25 0 34.66Q0 33.08 0 32.06Q0 31.05 0 31.05M0 30.60L0 15.70Q0 15.70 0.78 15.70Q1.55 15.70 2.71 15.70Q3.88 15.70 5.05 15.70Q6.23 15.70 7.05 15.70Q7.88 15.70 7.95 15.70Q7.95 15.70 7.95 15.70Q7.95 15.70 7.95 15.70Q7.95 15.70 7.95 15.70Q7.95 15.70 7.95 15.70Q7.95 15.70 7.95 15.70Q7.95 15.70 7.95 15.70Q7.95 15.70 7.95 15.70Q7.95 15.70 7.95 15.70Q7.95 15.70 7.95 15.70Q7.95 15.70 7.95 15.70Q8.03 15.70 8.78 15.70Q9.53 15.70 10.61 15.70Q11.70 15.70 12.76 15.70Q13.83 15.70 14.54 15.70Q15.25 15.70 15.25 15.70L15.25 20.80Q16.30 20.80 17.35 20.80Q18.40 20.80 19.45 20.80Q20.50 20.80 21.55 20.80Q21.55 20.80 22.25 20.80Q22.95 20.80 23.99 20.80Q25.03 20.80 26.06 20.80Q27.10 20.80 27.80 20.80Q28.50 20.80 28.50 20.80Q28.50 20.80 28.50 20.80Q28.50 20.80 28.50 20.80Q28.50 20.80 28.50 20.80Q28.50 20.80 28.50 20.80L28.50 30.65L26.50 30.65L26.50 22.80Q26.50 22.80 26.50 22.80Q26.50 22.80 26.50 22.80Q26.50 22.80 26.50 22.80Q26.50 22.80 26.50 22.80Q26.50 22.80 26.50 22.80Q26.50 22.80 26.50 22.80Q26.50 22.80 26.50 22.80Q26.50 22.80 25.69 22.80Q24.88 22.80 23.60 22.80Q22.33 22.80 20.89 22.80Q19.45 22.80 18.16 22.80Q16.88 22.80 16.06 22.80Q15.25 22.80 15.25 22.80Q15.25 22.80 15.25 22.80Q15.25 22.80 15.25 22.80Q15.25 22.80 15.25 22.80Q15.25 22.80 15.25 23.44Q15.25 24.07 15.25 25.02Q15.25 25.97 15.25 26.93Q15.25 27.88 15.25 28.51Q15.25 29.15 15.25 29.15Q15.25 29.15 14.75 29.15Q14.25 29.15 14.25 29.15Q14.25 29.15 13.75 29.15Q13.25 29.15 13.25 29.15Q13.25 29.15 13.25 27.99Q13.25 26.82 13.25 25.13Q13.25 23.42 13.25 21.72Q13.25 20.02 13.25 18.86Q13.25 17.70 13.25 17.70L13.25 17.70Q13.25 17.70 13.25 17.70Q13.25 17.70 13.25 17.70Q13.25 17.70 12.45 17.70Q11.65 17.70 10.60 17.70Q9.55 17.70 8.75 17.70Q7.95 17.70 7.95 17.70Q7.95 17.70 7.05 17.70Q6.15 17.70 4.97 17.70Q3.80 17.70 2.90 17.70Q2 17.70 2 17.70Q2 17.70 2 17.70Q2 17.70 2 17.70L2 30.60L0 30.60M23 32.40Q23 32.40 23 32.40Q23 32.40 23 32.40Q23 32.40 23.53 31.98Q24.05 31.55 24.75 30.98Q25.45 30.40 25.98 29.98Q26.50 29.55 26.50 29.55L26.50 27.05L27.45 27.05L28.50 27.05Q28.50 27.05 28.50 28.13Q28.50 29.20 28.50 30.80Q28.50 32.40 28.50 34Q28.50 35.60 28.50 36.67Q28.50 37.75 28.50 37.75L27.45 37.75L26.50 37.75L26.50 35.25Q26.50 35.25 25.98 34.83Q25.45 34.40 24.75 33.83Q24.05 33.25 23.53 32.83Q23 32.40 23 32.40Q23 32.40 23 32.40Q23 32.40 23 32.40M0 27.10L2 27.10Q2 28.47 2 29.30Q2 30.13 2 30.89Q2 31.65 2 32.85Q2 32.85 2 32.85Q2 32.85 2 32.85Q2 32.85 2 32.85Q2 32.85 2 32.85Q2 34.10 2 34.75Q2 35.40 2 35.84Q2 36.27 2 36.86Q2 37.45 2 38.60L0 38.60L0 27.10ZM55 38.60L53 38.60Q53 37.23 53 36.40Q53 35.58 53 34.81Q53 34.05 53 32.85Q53 32.85 53 32.85Q53 32.85 53 32.85Q53 32.85 53 32.85Q53 32.85 53 32.85Q53 31.60 53 30.95Q53 30.30 53 29.86Q53 29.42 53 28.84Q53 28.25 53 27.10L55 27.10L55 38.60M55 31.05Q55 31.05 55 32.06Q55 33.08 55 34.66Q55 36.25 55 38.02Q55 39.80 55 41.39Q55 42.98 55 43.99Q55 45 55 45Q55 45 55 45Q55 45 55 45Q55 45 55 45Q55 45 55 45Q55 45 53.99 45Q52.98 45 51.38 45Q49.78 45 47.96 45Q46.15 45 44.49 45Q42.83 45 41.70 45Q40.58 45 40.40 45Q40.40 45 40.40 45Q40.40 45 40.40 45Q40.40 45 40.40 45Q40.40 45 40.40 45Q40.40 45 40.40 45Q40.40 44.50 40.40 43.99Q40.40 43.48 40.40 43Q40.40 43 41.26 43Q42.13 43 43.40 43Q44.67 43 45.95 43Q47.23 43 48.09 43Q48.95 43 48.95 43Q48.95 43 48.95 43Q48.95 43 48.95 43Q48.95 43 48.95 43Q49.03 43 49.45 42.63Q49.88 42.25 50.48 41.67Q51.08 41.10 51.65 40.51Q52.23 39.92 52.61 39.50Q53 39.08 53 39L53 31.05L55 31.05M55 34.75L53 34.75L53 26.80Q53 26.72 52.61 26.30Q52.23 25.88 51.65 25.29Q51.08 24.70 50.48 24.13Q49.88 23.55 49.45 23.17Q49.03 22.80 48.95 22.80Q48.95 22.80 48.95 22.80Q48.95 22.80 48.95 22.80Q48.95 22.80 48.95 22.80Q48.95 22.80 48.09 22.80Q47.23 22.80 45.95 22.80Q44.67 22.80 43.40 22.80Q42.13 22.80 41.26 22.80Q40.40 22.80 40.40 22.80Q40.40 22.30 40.40 21.79Q40.40 21.27 40.40 20.80Q40.40 20.80 40.40 20.80Q40.40 20.80 40.40 20.80Q40.40 20.80 40.40 20.80Q40.40 20.80 40.40 20.80Q40.40 20.80 40.40 20.80Q40.58 20.80 41.70 20.80Q42.83 20.80 44.49 20.80Q46.15 20.80 47.96 20.80Q49.78 20.80 51.38 20.80Q52.98 20.80 53.99 20.80Q55 20.80 55 20.80Q55 20.80 55 20.80Q55 20.80 55 20.80Q55 20.80 55 20.80Q55 20.80 55 20.80Q55 20.80 55 21.81Q55 22.82 55 24.41Q55 26 55 27.77Q55 29.55 55 31.14Q55 32.73 55 33.74Q55 34.75 55 34.75M39.75 35.95Q39.75 35.95 39.75 35.01Q39.75 34.08 39.75 32.85Q39.75 31.63 39.75 30.69Q39.75 29.75 39.75 29.75Q39.75 29.75 39.75 29.75Q39.75 29.75 39.75 29.75Q39.75 29.60 39.77 29.57Q39.80 29.55 39.95 29.55Q40.23 29.55 40.49 29.55Q40.75 29.55 41.01 29.55Q41.27 29.55 41.55 29.55Q41.70 29.55 41.73 29.57Q41.75 29.60 41.75 29.75Q41.75 29.75 41.75 29.75Q41.75 29.75 41.75 29.75Q41.75 29.75 41.75 30.69Q41.75 31.63 41.75 32.85Q41.75 34.08 41.75 35.01Q41.75 35.95 41.75 35.95Q41.75 35.95 41.75 35.95Q41.75 35.95 41.75 35.95Q41.75 35.95 41.75 35.95Q41.75 35.95 41.75 35.95Q41.75 35.95 41.75 35.95Q41.75 35.95 41.75 35.95Q41.75 35.95 41.75 35.95Q41.75 36.10 41.73 36.13Q41.70 36.15 41.55 36.15Q41.15 36.15 40.76 36.15Q40.38 36.15 39.95 36.15Q39.80 36.15 39.77 36.13Q39.75 36.10 39.75 35.95Q39.75 35.95 39.75 35.95Q39.75 35.95 39.75 35.95Q39.75 35.95 39.75 35.95Q39.75 35.95 39.75 35.95Q39.75 35.95 39.75 35.95Q39.75 35.95 39.75 35.95Q39.75 35.95 39.75 35.95M26.50 38.60L26.50 27.10L28.50 27.10Q28.50 28.25 28.50 28.84Q28.50 29.42 28.50 29.86Q28.50 30.30 28.50 30.95Q28.50 31.60 28.50 32.85Q28.50 32.85 28.50 32.85Q28.50 32.85 28.50 32.85Q28.50 32.85 28.50 32.85Q28.50 32.85 28.50 32.85Q28.50 34.05 28.50 34.81Q28.50 35.58 28.50 36.40Q28.50 37.23 28.50 38.60L26.50 38.60M26.50 31.05L28.50 31.05L28.50 39Q28.50 39.08 28.89 39.50Q29.27 39.92 29.85 40.51Q30.43 41.10 31.02 41.67Q31.63 42.25 32.05 42.63Q32.48 43 32.55 43Q32.55 43 32.55 43Q32.55 43 32.55 43Q32.55 43 32.55 43Q32.55 43 33.41 43Q34.27 43 35.55 43Q36.83 43 38.10 43Q39.38 43 40.24 43Q41.10 43 41.10 43Q41.10 43.48 41.10 43.99Q41.10 44.50 41.10 45Q41.10 45 41.10 45Q41.10 45 41.10 45Q41.10 45 41.10 45Q41.10 45 41.10 45Q41.10 45 41.10 45Q40.92 45 39.80 45Q38.67 45 37.01 45Q35.35 45 33.54 45Q31.73 45 30.13 45Q28.52 45 27.51 45Q26.50 45 26.50 45Q26.50 45 26.50 45Q26.50 45 26.50 45Q26.50 45 26.50 45Q26.50 45 26.50 45Q26.50 45 26.50 43.99Q26.50 42.98 26.50 41.39Q26.50 39.80 26.50 38.02Q26.50 36.25 26.50 34.66Q26.50 33.08 26.50 32.06Q26.50 31.05 26.50 31.05M26.50 34.75Q26.50 34.75 26.50 33.74Q26.50 32.73 26.50 31.14Q26.50 29.55 26.50 27.77Q26.50 26 26.50 24.41Q26.50 22.82 26.50 21.81Q26.50 20.80 26.50 20.80Q26.50 20.80 26.50 20.80Q26.50 20.80 26.50 20.80Q26.50 20.80 26.50 20.80Q26.50 20.80 26.50 20.80Q26.50 20.80 27.51 20.80Q28.52 20.80 30.13 20.80Q31.73 20.80 33.54 20.80Q35.35 20.80 37.01 20.80Q38.67 20.80 39.80 20.80Q40.92 20.80 41.10 20.80Q41.10 20.80 41.10 20.80Q41.10 20.80 41.10 20.80Q41.10 20.80 41.10 20.80Q41.10 20.80 41.10 20.80Q41.10 20.80 41.10 20.80Q41.10 21.27 41.10 21.79Q41.10 22.30 41.10 22.80Q41.10 22.80 40.24 22.80Q39.38 22.80 38.10 22.80Q36.83 22.80 35.55 22.80Q34.27 22.80 33.41 22.80Q32.55 22.80 32.55 22.80Q32.55 22.80 32.55 22.80Q32.55 22.80 32.55 22.80Q32.55 22.80 32.55 22.80Q32.48 22.80 32.05 23.17Q31.63 23.55 31.02 24.13Q30.43 24.70 29.85 25.29Q29.27 25.88 28.89 26.30Q28.50 26.72 28.50 26.80L28.50 34.75L26.50 34.75ZM81.50 38.60L79.50 38.60Q79.50 37.23 79.50 36.40Q79.50 35.58 79.50 34.81Q79.50 34.05 79.50 32.85Q79.50 32.85 79.50 32.85Q79.50 32.85 79.50 32.85Q79.50 32.85 79.50 32.85Q79.50 32.85 79.50 32.85Q79.50 31.60 79.50 30.95Q79.50 30.30 79.50 29.86Q79.50 29.42 79.50 28.84Q79.50 28.25 79.50 27.10L81.50 27.10L81.50 38.60M53 38.60L53 27.10L55 27.10Q55 28.25 55 28.84Q55 29.42 55 29.86Q55 30.30 55 30.95Q55 31.60 55 32.85Q55 32.85 55 32.85Q55 32.85 55 32.85Q55 32.85 55 32.85Q55 32.85 55 32.85Q55 34.05 55 34.81Q55 35.58 55 36.40Q55 37.23 55 38.60L53 38.60M81.50 34.75L79.50 34.75L79.50 26.80Q79.50 26.72 79.11 26.30Q78.72 25.88 78.15 25.29Q77.58 24.70 76.97 24.13Q76.38 23.55 75.95 23.17Q75.53 22.80 75.45 22.80Q75.45 22.80 75.45 22.80Q75.45 22.80 75.45 22.80Q75.45 22.80 75.45 22.80Q75.45 22.80 74.59 22.80Q73.72 22.80 72.45 22.80Q71.17 22.80 69.90 22.80Q68.63 22.80 67.76 22.80Q66.90 22.80 66.90 22.80Q66.90 22.30 66.90 21.79Q66.90 21.27 66.90 20.80Q66.90 20.80 66.90 20.80Q66.90 20.80 66.90 20.80Q66.90 20.80 66.90 20.80Q66.90 20.80 66.90 20.80Q66.90 20.80 66.90 20.80Q67.08 20.80 68.20 20.80Q69.33 20.80 70.99 20.80Q72.65 20.80 74.46 20.80Q76.28 20.80 77.88 20.80Q79.47 20.80 80.49 20.80Q81.50 20.80 81.50 20.80Q81.50 20.80 81.50 20.80Q81.50 20.80 81.50 20.80Q81.50 20.80 81.50 20.80Q81.50 20.80 81.50 20.80Q81.50 20.80 81.50 21.81Q81.50 22.82 81.50 24.41Q81.50 26 81.50 27.77Q81.50 29.55 81.50 31.14Q81.50 32.73 81.50 33.74Q81.50 34.75 81.50 34.75M81.50 31.05Q81.50 31.05 81.50 32.06Q81.50 33.08 81.50 34.66Q81.50 36.25 81.50 38.02Q81.50 39.80 81.50 41.39Q81.50 42.98 81.50 43.99Q81.50 45 81.50 45Q81.50 45 81.50 45Q81.50 45 81.50 45Q81.50 45 81.50 45Q81.50 45 81.50 45Q81.50 45 80.45 45Q79.40 45 77.74 45Q76.08 45 74.20 45Q72.33 45 70.66 45Q69 45 67.95 45Q66.90 45 66.90 45Q66.90 45 66.90 45Q66.90 45 66.90 45Q66.90 45 66.90 45Q66.90 45 66.90 45Q66.90 45 66.90 45Q66.90 44.50 66.90 43.99Q66.90 43.48 66.90 43Q66.90 43 67.81 43Q68.72 43 70.16 43Q71.60 43 73.20 43Q74.80 43 76.24 43Q77.67 43 78.59 43Q79.50 43 79.50 43Q79.50 43 79.50 43Q79.50 43 79.50 43Q79.50 43 79.50 43Q79.50 43 79.50 43Q79.50 43 79.50 43Q79.50 43 79.50 43Q79.50 43 79.50 43Q79.50 43 79.50 43Q79.50 43 79.50 43Q79.50 43 79.50 43Q79.50 43 79.50 43Q79.50 43 79.50 43Q79.50 43 79.50 43Q79.50 43 79.50 42.14Q79.50 41.27 79.50 39.91Q79.50 38.55 79.50 37.02Q79.50 35.50 79.50 34.14Q79.50 32.77 79.50 31.91Q79.50 31.05 79.50 31.05L81.50 31.05M53 31.05L55 31.05Q55 31.05 55 31.91Q55 32.77 55 34.14Q55 35.50 55 37.02Q55 38.55 55 39.91Q55 41.27 55 42.14Q55 43 55 43Q55 43 55 43Q55 43 55 43Q55 43 55 43Q55 43 55 43Q55 43 55 43Q55 43 55 43Q55 43 55 43Q55 43 55 43Q55 43 55 43Q55 43 55 43Q55 43 55 43Q55 43 55 43Q55 43 55 43Q55 43 55.91 43Q56.83 43 58.26 43Q59.70 43 61.30 43Q62.90 43 64.34 43Q65.78 43 66.69 43Q67.60 43 67.60 43Q67.60 43.48 67.60 43.99Q67.60 44.50 67.60 45Q67.60 45 67.60 45Q67.60 45 67.60 45Q67.60 45 67.60 45Q67.60 45 67.60 45Q67.60 45 67.60 45Q67.60 45 66.55 45Q65.50 45 63.84 45Q62.17 45 60.30 45Q58.42 45 56.76 45Q55.10 45 54.05 45Q53 45 53 45Q53 45 53 45Q53 45 53 45Q53 45 53 45Q53 45 53 45Q53 45 53 43.99Q53 42.98 53 41.39Q53 39.80 53 38.02Q53 36.25 53 34.66Q53 33.08 53 32.06Q53 31.05 53 31.05M53 34.75Q53 34.75 53 33.74Q53 32.73 53 31.14Q53 29.55 53 27.77Q53 26 53 24.41Q53 22.82 53 21.81Q53 20.80 53 20.80Q53 20.80 53 20.80Q53 20.80 53 20.80Q53 20.80 53 20.80Q53 20.80 53 20.80Q53 20.80 54.05 20.80Q55.10 20.80 56.76 20.80Q58.42 20.80 60.30 20.80Q62.17 20.80 63.84 20.80Q65.50 20.80 66.55 20.80Q67.60 20.80 67.60 20.80Q67.60 20.80 67.60 20.80Q67.60 20.80 67.60 20.80Q67.60 20.80 67.60 20.80Q67.60 20.80 67.60 20.80Q67.60 20.80 67.60 20.80Q67.60 21.27 67.60 21.79Q67.60 22.30 67.60 22.80Q67.60 22.80 66.69 22.80Q65.78 22.80 64.34 22.80Q62.90 22.80 61.30 22.80Q59.70 22.80 58.26 22.80Q56.83 22.80 55.91 22.80Q55 22.80 55 22.80Q55 22.80 55 22.80Q55 22.80 55 22.80Q55 22.80 55 22.80Q55 22.80 55 22.80Q55 22.80 55 22.80Q55 22.80 55 22.80Q55 22.80 55 22.80Q55 22.80 55 22.80Q55 22.80 55 22.80Q55 22.80 55 22.80Q55 22.80 55 22.80Q55 22.80 55 22.80Q55 22.80 55 22.80Q55 22.80 55 23.66Q55 24.52 55 25.89Q55 27.25 55 28.77Q55 30.30 55 31.66Q55 33.02 55 33.89Q55 34.75 55 34.75L53 34.75M66.45 43.35Q66.38 43.35 66.34 43.35Q66.30 43.35 66.28 43.33Q66.25 43.30 66.25 43.26Q66.25 43.23 66.25 43.15Q66.25 43.15 66.25 43.15Q66.25 43.15 66.25 43.15Q66.25 43.15 66.25 43.15Q66.25 43.15 66.25 43.15Q66.25 43.15 66.25 43.15Q66.25 43.15 66.25 42.38Q66.25 41.60 66.25 40.39Q66.25 39.17 66.25 37.80Q66.25 36.42 66.25 35.21Q66.25 34 66.25 33.23Q66.25 32.45 66.25 32.45Q66.25 32.35 66.26 32.31Q66.28 32.27 66.31 32.26Q66.35 32.25 66.45 32.25Q66.45 32.25 66.85 32.25Q67.25 32.25 67.65 32.25Q68.05 32.25 68.05 32.25Q68.15 32.25 68.19 32.26Q68.22 32.27 68.24 32.31Q68.25 32.35 68.25 32.45Q68.25 32.45 68.25 33.23Q68.25 34 68.25 35.21Q68.25 36.42 68.25 37.80Q68.25 39.17 68.25 40.39Q68.25 41.60 68.25 42.38Q68.25 43.15 68.25 43.15Q68.25 43.15 68.25 43.15Q68.25 43.15 68.25 43.15Q68.25 43.15 68.25 43.15Q68.25 43.15 68.25 43.15Q68.25 43.15 68.25 43.15Q68.25 43.23 68.25 43.26Q68.25 43.30 68.22 43.33Q68.20 43.35 68.16 43.35Q68.13 43.35 68.05 43.35Q68.05 43.35 67.65 43.35Q67.25 43.35 66.85 43.35Q66.45 43.35 66.45 43.35ZM106.10 31.05Q106.10 32.17 106.10 33.65Q106.10 35.13 106.10 36.69Q106.10 38.25 106.10 39.73Q106.10 41.20 106.10 42.40Q106.10 43.60 106.10 44.30Q106.10 45 106.10 45Q106.10 45 106.10 45Q106.10 45 106.10 45Q106.10 45 106.10 45Q106.10 45 106.10 45Q106.10 45 105.11 45Q104.13 45 102.59 45Q101.05 45 99.30 45Q97.55 45 96.01 45Q94.47 45 93.49 45Q92.50 45 92.50 45Q92.50 45 92.50 45Q92.50 45 92.50 45Q92.50 45 92.50 45Q92.50 45 92.50 45Q92.50 45 92.50 45Q92.50 44.50 92.50 43.99Q92.50 43.48 92.50 43Q92.63 43 93.33 43Q94.03 43 95.04 43Q96.05 43 97.09 43Q98.13 43 98.94 43Q99.75 43 100.05 43Q100.05 43 100.05 43Q100.05 43 100.05 43Q100.05 43 100.05 43Q100.05 43 100.05 43Q100.13 43 100.55 42.63Q100.97 42.25 101.58 41.67Q102.17 41.10 102.75 40.51Q103.33 39.92 103.71 39.50Q104.10 39.08 104.10 39L104.10 31.05L106.10 31.05M79.50 34.75Q79.50 33.60 79.50 32.15Q79.50 30.70 79.50 29.13Q79.50 27.55 79.50 26.07Q79.50 24.60 79.50 23.40Q79.50 22.20 79.50 21.50Q79.50 20.80 79.50 20.80Q79.50 20.80 79.50 20.80Q79.50 20.80 79.50 20.80Q79.50 20.80 79.50 20.80Q79.50 20.80 79.50 20.80Q79.50 20.80 80.49 20.80Q81.47 20.80 83.01 20.80Q84.55 20.80 86.30 20.80Q88.05 20.80 89.59 20.80Q91.13 20.80 92.11 20.80Q93.10 20.80 93.10 20.80Q93.10 20.80 93.10 20.80Q93.10 20.80 93.10 20.80Q93.10 20.80 93.10 20.80Q93.10 20.80 93.10 20.80Q93.10 20.80 93.10 20.80Q93.10 21.27 93.10 21.79Q93.10 22.30 93.10 22.80Q92.97 22.80 92.28 22.80Q91.58 22.80 90.56 22.80Q89.55 22.80 88.51 22.80Q87.47 22.80 86.66 22.80Q85.85 22.80 85.55 22.80Q85.55 22.80 85.55 22.80Q85.55 22.80 85.55 22.80Q85.55 22.80 85.55 22.80Q85.55 22.80 85.55 22.80Q85.47 22.80 85.05 23.17Q84.63 23.55 84.03 24.13Q83.42 24.70 82.85 25.29Q82.28 25.88 81.89 26.30Q81.50 26.72 81.50 26.80L81.50 34.75L79.50 34.75M106.10 33.25L104.10 33.25Q104.10 33.25 104.10 32.20Q104.10 31.15 104.10 29.59Q104.10 28.02 104.10 26.46Q104.10 24.90 104.10 23.85Q104.10 22.80 104.10 22.80Q104.10 22.80 104.10 22.80Q104.10 22.80 104.10 22.80Q104.10 22.80 104.10 22.80Q104.10 22.80 104.10 22.80Q104.10 22.80 104.10 22.80Q104.10 22.80 104.10 22.80Q104.10 22.80 104.10 22.80Q104.10 22.80 104.10 22.80Q104.10 22.80 104.10 22.80Q104.10 22.80 104.10 22.80Q104.10 22.80 104.10 22.80Q104.10 22.80 102.92 22.80Q101.75 22.80 100.03 22.80Q98.30 22.80 96.58 22.80Q94.85 22.80 93.67 22.80Q92.50 22.80 92.50 22.80Q92.50 22.30 92.50 21.79Q92.50 21.27 92.50 20.80Q92.50 20.80 92.50 20.80Q92.50 20.80 92.50 20.80Q92.50 20.80 92.50 20.80Q92.50 20.80 92.50 20.80Q92.50 20.80 92.50 20.80Q92.50 20.80 93.49 20.80Q94.47 20.80 96.01 20.80Q97.55 20.80 99.30 20.80Q101.05 20.80 102.59 20.80Q104.13 20.80 105.11 20.80Q106.10 20.80 106.10 20.80Q106.10 20.80 106.10 20.80Q106.10 20.80 106.10 20.80Q106.10 20.80 106.10 20.80Q106.10 20.80 106.10 20.80Q106.10 20.80 106.10 21.70Q106.10 22.60 106.10 24.01Q106.10 25.42 106.10 27.02Q106.10 28.63 106.10 30.04Q106.10 31.45 106.10 32.35Q106.10 33.25 106.10 33.25M79.50 32.55L81.50 32.55Q81.50 32.55 81.50 33.60Q81.50 34.65 81.50 36.21Q81.50 37.77 81.50 39.34Q81.50 40.90 81.50 41.95Q81.50 43 81.50 43Q81.50 43 81.50 43Q81.50 43 81.50 43Q81.50 43 81.50 43Q81.50 43 81.50 43Q81.50 43 81.50 43Q81.50 43 81.50 43Q81.50 43 81.50 43Q81.50 43 81.50 43Q81.50 43 81.50 43Q81.50 43 81.50 43Q81.50 43 81.50 43Q81.50 43 82.67 43Q83.85 43 85.58 43Q87.30 43 89.03 43Q90.75 43 91.92 43Q93.10 43 93.10 43Q93.10 43.48 93.10 43.99Q93.10 44.50 93.10 45Q93.10 45 93.10 45Q93.10 45 93.10 45Q93.10 45 93.10 45Q93.10 45 93.10 45Q93.10 45 93.10 45Q93.10 45 92.11 45Q91.13 45 89.59 45Q88.05 45 86.30 45Q84.55 45 83.01 45Q81.47 45 80.49 45Q79.50 45 79.50 45Q79.50 45 79.50 45Q79.50 45 79.50 45Q79.50 45 79.50 45Q79.50 45 79.50 45Q79.50 45 79.50 44.10Q79.50 43.20 79.50 41.79Q79.50 40.38 79.50 38.77Q79.50 37.17 79.50 35.76Q79.50 34.35 79.50 33.45Q79.50 32.55 79.50 32.55M80.50 36.50L80.50 32.85L81.45 32.85Q81.45 32.85 81.45 33.09Q81.45 33.33 81.45 33.56Q81.45 33.80 81.45 33.80Q81.45 33.80 82.49 33.95Q83.53 34.10 85.06 34.33Q86.60 34.55 88.14 34.77Q89.67 35 90.71 35.15Q91.75 35.30 91.75 35.30Q91.75 35.30 91.74 35.41Q91.72 35.52 91.69 35.75Q91.65 35.98 91.60 36.30Q91.55 36.63 91.51 36.84Q91.47 37.05 91.46 37.15Q91.45 37.25 91.45 37.25Q91.45 37.25 90.44 37.10Q89.42 36.95 87.94 36.74Q86.45 36.52 84.96 36.31Q83.47 36.10 82.46 35.95Q81.45 35.80 81.45 35.80Q81.45 35.80 81.45 35.98Q81.45 36.15 81.45 36.33Q81.45 36.50 81.45 36.50L80.50 36.50M105.15 29.75L105.15 33.40L104.20 33.40Q104.20 33.40 104.20 33.16Q104.20 32.92 104.20 32.69Q104.20 32.45 104.20 32.45Q104.20 32.45 103.16 32.30Q102.13 32.15 100.59 31.92Q99.05 31.70 97.51 31.48Q95.97 31.25 94.94 31.10Q93.90 30.95 93.90 30.95Q93.90 30.95 93.91 30.84Q93.92 30.73 93.96 30.50Q94 30.27 94.05 29.95Q94.10 29.63 94.14 29.41Q94.17 29.20 94.19 29.10Q94.20 29 94.20 29Q94.20 29 95.21 29.15Q96.22 29.30 97.71 29.51Q99.20 29.73 100.69 29.94Q102.17 30.15 103.19 30.30Q104.20 30.45 104.20 30.45Q104.20 30.45 104.20 30.27Q104.20 30.10 104.20 29.92Q104.20 29.75 104.20 29.75L105.15 29.75ZM119.65 32.55Q119.65 33.58 119.65 34.79Q119.65 36 119.65 37.31Q119.65 38.63 119.65 39.96Q119.65 41.30 119.65 42.58Q119.65 43.85 119.65 45Q119.65 45 118.86 45Q118.07 45 116.91 45Q115.75 45 114.59 45Q113.42 45 112.64 45Q111.85 45 111.85 45Q111.85 45 111.85 45Q111.85 45 111.85 45Q111.85 45 111.85 45Q111.85 45 111.85 45Q111.67 44.63 111.67 44Q111.67 43.38 111.85 43Q112.38 43 113.02 43Q113.67 43 114.41 43Q115.15 43 115.97 43Q116.80 43 117.65 43Q117.65 43 117.65 43Q117.65 43 117.65 43Q117.65 43 117.65 43Q117.65 43 117.65 43Q117.65 43 117.65 43Q117.65 43 117.65 43Q117.65 43 117.65 43Q117.65 43 117.65 43Q117.65 43 117.65 41.95Q117.65 40.90 117.65 39.34Q117.65 37.77 117.65 36.21Q117.65 34.65 117.65 33.60Q117.65 32.55 117.65 32.55L119.65 32.55M104.10 32.55L106.10 32.55Q106.10 32.55 106.10 33.60Q106.10 34.65 106.10 36.21Q106.10 37.77 106.10 39.34Q106.10 40.90 106.10 41.95Q106.10 43 106.10 43Q106.10 43 106.10 43Q106.10 43 106.10 43Q106.10 43 106.10 43Q106.10 43 106.10 43Q106.10 43 106.10 43Q106.10 43 106.10 43Q106.10 43 106.10 43Q106.10 43 106.10 43Q106.97 43 107.79 43Q108.60 43 109.34 43Q110.07 43 110.72 43Q111.38 43 111.90 43Q112.10 43.38 112.10 44Q112.10 44.63 111.90 45Q111.90 45 111.90 45Q111.90 45 111.90 45Q111.90 45 111.90 45Q111.90 45 111.90 45Q111.90 45 111.11 45Q110.32 45 109.16 45Q108 45 106.84 45Q105.67 45 104.89 45Q104.10 45 104.10 45Q104.10 43.85 104.10 42.58Q104.10 41.30 104.10 39.96Q104.10 38.63 104.10 37.31Q104.10 36 104.10 34.79Q104.10 33.58 104.10 32.55M104.10 27.10L106.10 27.10Q106.10 28.47 106.10 29.30Q106.10 30.13 106.10 30.89Q106.10 31.65 106.10 32.85Q106.10 32.85 106.10 32.85Q106.10 32.85 106.10 32.85Q106.10 32.85 106.10 32.85Q106.10 32.85 106.10 32.85Q106.10 34.10 106.10 34.75Q106.10 35.40 106.10 35.84Q106.10 36.27 106.10 36.86Q106.10 37.45 106.10 38.60L104.10 38.60L104.10 27.10M119.65 27.10L119.65 38.60L117.65 38.60Q117.65 37.45 117.65 36.86Q117.65 36.27 117.65 35.84Q117.65 35.40 117.65 34.75Q117.65 34.10 117.65 32.85Q117.65 32.85 117.65 32.85Q117.65 32.85 117.65 32.85Q117.65 32.85 117.65 32.85Q117.65 32.85 117.65 32.85Q117.65 31.65 117.65 30.89Q117.65 30.13 117.65 29.30Q117.65 28.47 117.65 27.10L119.65 27.10M119.65 28.15L117.65 28.15Q117.65 28.15 117.65 27.10Q117.65 26.05 117.65 24.49Q117.65 22.92 117.65 21.36Q117.65 19.80 117.65 18.75Q117.65 17.70 117.65 17.70Q117.65 17.70 117.65 17.70Q117.65 17.70 117.65 17.70Q117.65 17.70 117.65 17.70Q117.65 17.70 117.65 17.70Q117.65 17.70 117.65 17.70Q117.65 17.70 117.65 17.70Q117.65 17.70 117.65 17.70Q117.65 17.70 117.65 17.70Q116.80 17.70 115.97 17.70Q115.15 17.70 114.41 17.70Q113.67 17.70 113.02 17.70Q112.38 17.70 111.85 17.70Q111.67 17.32 111.67 16.70Q111.67 16.07 111.85 15.70Q111.85 15.70 111.85 15.70Q111.85 15.70 111.85 15.70Q111.85 15.70 111.85 15.70Q111.85 15.70 111.85 15.70Q111.85 15.70 112.64 15.70Q113.42 15.70 114.59 15.70Q115.75 15.70 116.91 15.70Q118.07 15.70 118.86 15.70Q119.65 15.70 119.65 15.70Q119.65 16.85 119.65 18.13Q119.65 19.40 119.65 20.74Q119.65 22.07 119.65 23.39Q119.65 24.70 119.65 25.91Q119.65 27.13 119.65 28.15M104.10 28.15Q104.10 27.13 104.10 25.91Q104.10 24.70 104.10 23.39Q104.10 22.07 104.10 20.74Q104.10 19.40 104.10 18.13Q104.10 16.85 104.10 15.70Q104.10 15.70 104.89 15.70Q105.67 15.70 106.84 15.70Q108 15.70 109.16 15.70Q110.32 15.70 111.11 15.70Q111.90 15.70 111.90 15.70Q111.90 15.70 111.90 15.70Q111.90 15.70 111.90 15.70Q111.90 15.70 111.90 15.70Q111.90 15.70 111.90 15.70Q112.10 16.07 112.10 16.70Q112.10 17.32 111.90 17.70Q111.38 17.70 110.72 17.70Q110.07 17.70 109.34 17.70Q108.60 17.70 107.79 17.70Q106.97 17.70 106.10 17.70Q106.10 17.70 106.10 17.70Q106.10 17.70 106.10 17.70Q106.10 17.70 106.10 17.70Q106.10 17.70 106.10 17.70Q106.10 17.70 106.10 17.70Q106.10 17.70 106.10 17.70Q106.10 17.70 106.10 17.70Q106.10 17.70 106.10 17.70Q106.10 17.70 106.10 18.75Q106.10 19.80 106.10 21.36Q106.10 22.92 106.10 24.49Q106.10 26.05 106.10 27.10Q106.10 28.15 106.10 28.15L104.10 28.15M119.65 29.65L117.65 29.65Q117.65 28.90 117.65 28.11Q117.65 27.32 117.65 26.65Q117.65 25.97 117.65 25.56Q117.65 25.15 117.65 25.15Q117.65 25.15 117.65 25.15Q117.65 25.15 117.65 25.15Q117.65 25.15 117.65 25.07Q117.65 25 117.65 24.76Q117.65 24.52 117.65 24.01Q117.65 23.50 117.65 22.65Q117.65 22.65 117.65 22.65Q117.65 22.65 117.65 22.65Q117.65 22.65 116.79 22.65Q115.92 22.65 114.77 22.65Q113.63 22.65 112.76 22.65Q111.90 22.65 111.90 22.65Q111.90 22.65 111.90 22.36Q111.90 22.07 111.90 21.70Q111.90 21.32 111.90 21.04Q111.90 20.75 111.90 20.75Q112.25 20.75 112.67 20.75Q113.10 20.75 113.74 20.75Q114.38 20.75 115.27 20.75Q116.17 20.75 117.45 20.75Q117.63 20.75 117.97 20.75Q118.32 20.75 118.65 20.75Q118.97 20.75 119.10 20.75Q119.20 20.75 119.29 20.75Q119.38 20.75 119.46 20.75Q119.55 20.75 119.65 20.75Q119.65 21.52 119.65 22.72Q119.65 23.92 119.65 25.25Q119.65 26.57 119.65 27.75Q119.65 28.93 119.65 29.65M104.10 29.65Q104.10 28.93 104.10 27.75Q104.10 26.57 104.10 25.25Q104.10 23.92 104.10 22.72Q104.10 21.52 104.10 20.75Q104.20 20.75 104.29 20.75Q104.38 20.75 104.46 20.75Q104.55 20.75 104.65 20.75Q104.77 20.75 105.10 20.75Q105.42 20.75 105.77 20.75Q106.13 20.75 106.30 20.75Q107.15 20.75 107.84 20.75Q108.52 20.75 109.06 20.75Q109.60 20.75 110.04 20.75Q110.47 20.75 110.81 20.75Q111.15 20.75 111.41 20.75Q111.67 20.75 111.90 20.75Q111.90 20.75 111.90 21.04Q111.90 21.32 111.90 21.70Q111.90 22.07 111.90 22.36Q111.90 22.65 111.90 22.65Q111.90 22.65 111.31 22.65Q110.72 22.65 109.86 22.65Q109 22.65 108.14 22.65Q107.27 22.65 106.69 22.65Q106.10 22.65 106.10 22.65Q106.10 22.65 106.10 22.65Q106.10 22.65 106.10 22.65Q106.10 23.50 106.10 24.01Q106.10 24.52 106.10 24.76Q106.10 25 106.10 25.07Q106.10 25.15 106.10 25.15Q106.10 25.15 106.10 25.15Q106.10 25.15 106.10 25.15Q106.10 25.15 106.10 25.56Q106.10 25.97 106.10 26.65Q106.10 27.32 106.10 28.11Q106.10 28.90 106.10 29.65L104.10 29.65ZM117.65 33.25Q117.65 33.25 117.65 32.35Q117.65 31.45 117.65 30.04Q117.65 28.63 117.65 27.02Q117.65 25.42 117.65 24.01Q117.65 22.60 117.65 21.70Q117.65 20.80 117.65 20.80Q117.65 20.80 117.65 20.80Q117.65 20.80 117.65 20.80Q117.65 20.80 117.65 20.80Q117.65 20.80 117.65 20.80Q117.65 20.80 118.64 20.80Q119.62 20.80 121.16 20.80Q122.70 20.80 124.45 20.80Q126.20 20.80 127.74 20.80Q129.27 20.80 130.26 20.80Q131.25 20.80 131.25 20.80Q131.25 20.80 131.25 20.80Q131.25 20.80 131.25 20.80Q131.25 20.80 131.25 20.80Q131.25 20.80 131.25 20.80Q131.25 20.80 131.25 20.80Q131.25 21.27 131.25 21.79Q131.25 22.30 131.25 22.80Q131.25 22.80 130.07 22.80Q128.90 22.80 127.17 22.80Q125.45 22.80 123.72 22.80Q122.00 22.80 120.82 22.80Q119.65 22.80 119.65 22.80Q119.65 22.80 119.65 22.80Q119.65 22.80 119.65 22.80Q119.65 22.80 119.65 22.80Q119.65 22.80 119.65 22.80Q119.65 22.80 119.65 22.80Q119.65 22.80 119.65 22.80Q119.65 22.80 119.65 22.80Q119.65 22.80 119.65 22.80Q119.65 22.80 119.65 22.80Q119.65 22.80 119.65 22.80Q119.65 22.80 119.65 22.80Q119.65 22.80 119.65 23.85Q119.65 24.90 119.65 26.46Q119.65 28.02 119.65 29.59Q119.65 31.15 119.65 32.20Q119.65 33.25 119.65 33.25L117.65 33.25M144.25 33.25L142.25 33.25Q142.25 33.25 142.25 32.20Q142.25 31.15 142.25 29.59Q142.25 28.02 142.25 26.46Q142.25 24.90 142.25 23.85Q142.25 22.80 142.25 22.80Q142.25 22.80 142.25 22.80Q142.25 22.80 142.25 22.80Q142.25 22.80 142.25 22.80Q142.25 22.80 142.25 22.80Q142.25 22.80 142.25 22.80Q142.25 22.80 142.25 22.80Q142.25 22.80 142.25 22.80Q142.25 22.80 142.25 22.80Q142.25 22.80 142.25 22.80Q142.25 22.80 142.25 22.80Q142.25 22.80 142.25 22.80Q142.25 22.80 141.07 22.80Q139.90 22.80 138.17 22.80Q136.45 22.80 134.72 22.80Q133 22.80 131.82 22.80Q130.65 22.80 130.65 22.80Q130.65 22.30 130.65 21.79Q130.65 21.27 130.65 20.80Q130.65 20.80 130.65 20.80Q130.65 20.80 130.65 20.80Q130.65 20.80 130.65 20.80Q130.65 20.80 130.65 20.80Q130.65 20.80 130.65 20.80Q130.65 20.80 131.64 20.80Q132.63 20.80 134.16 20.80Q135.70 20.80 137.45 20.80Q139.20 20.80 140.74 20.80Q142.27 20.80 143.26 20.80Q144.25 20.80 144.25 20.80Q144.25 20.80 144.25 20.80Q144.25 20.80 144.25 20.80Q144.25 20.80 144.25 20.80Q144.25 20.80 144.25 20.80Q144.25 20.80 144.25 21.70Q144.25 22.60 144.25 24.01Q144.25 25.42 144.25 27.02Q144.25 28.63 144.25 30.04Q144.25 31.45 144.25 32.35Q144.25 33.25 144.25 33.25M117.65 32.55L119.65 32.55Q119.65 32.55 119.65 33.60Q119.65 34.65 119.65 36.21Q119.65 37.77 119.65 39.34Q119.65 40.90 119.65 41.95Q119.65 43 119.65 43Q119.65 43 119.65 43Q119.65 43 119.65 43Q119.65 43 119.65 43Q119.65 43 119.65 43Q119.65 43 119.65 43Q119.65 43 119.65 43Q119.65 43 119.65 43Q119.65 43 119.65 43Q119.65 43 119.65 43Q119.65 43 119.65 43Q119.65 43 119.65 43Q119.65 43 120.82 43Q122.00 43 123.72 43Q125.45 43 127.17 43Q128.90 43 130.07 43Q131.25 43 131.25 43Q131.25 43.48 131.25 43.99Q131.25 44.50 131.25 45Q131.25 45 131.25 45Q131.25 45 131.25 45Q131.25 45 131.25 45Q131.25 45 131.25 45Q131.25 45 131.25 45Q131.25 45 130.26 45Q129.27 45 127.74 45Q126.20 45 124.45 45Q122.70 45 121.16 45Q119.62 45 118.64 45Q117.65 45 117.65 45Q117.65 45 117.65 45Q117.65 45 117.65 45Q117.65 45 117.65 45Q117.65 45 117.65 45Q117.65 45 117.65 44.10Q117.65 43.20 117.65 41.79Q117.65 40.38 117.65 38.77Q117.65 37.17 117.65 35.76Q117.65 34.35 117.65 33.45Q117.65 32.55 117.65 32.55M144.25 32.55Q144.25 32.55 144.25 33.45Q144.25 34.35 144.25 35.76Q144.25 37.17 144.25 38.77Q144.25 40.38 144.25 41.79Q144.25 43.20 144.25 44.10Q144.25 45 144.25 45Q144.25 45 144.25 45Q144.25 45 144.25 45Q144.25 45 144.25 45Q144.25 45 144.25 45Q144.25 45 143.26 45Q142.27 45 140.74 45Q139.20 45 137.45 45Q135.70 45 134.16 45Q132.63 45 131.64 45Q130.65 45 130.65 45Q130.65 45 130.65 45Q130.65 45 130.65 45Q130.65 45 130.65 45Q130.65 45 130.65 45Q130.65 45 130.65 45Q130.65 44.50 130.65 43.99Q130.65 43.48 130.65 43Q130.65 43 131.82 43Q133 43 134.72 43Q136.45 43 138.17 43Q139.90 43 141.07 43Q142.25 43 142.25 43Q142.25 43 142.25 43Q142.25 43 142.25 43Q142.25 43 142.25 43Q142.25 43 142.25 43Q142.25 43 142.25 43Q142.25 43 142.25 43Q142.25 43 142.25 43Q142.25 43 142.25 43Q142.25 43 142.25 43Q142.25 43 142.25 43Q142.25 43 142.25 43Q142.25 43 142.25 41.95Q142.25 40.90 142.25 39.34Q142.25 37.77 142.25 36.21Q142.25 34.65 142.25 33.60Q142.25 32.55 142.25 32.55L144.25 32.55M118.65 29.70L119.60 29.70Q119.60 29.70 119.60 29.88Q119.60 30.05 119.60 30.23Q119.60 30.40 119.60 30.40Q119.60 30.40 120.61 30.25Q121.62 30.10 123.11 29.89Q124.60 29.67 126.09 29.46Q127.57 29.25 128.59 29.10Q129.60 28.95 129.60 28.95Q129.60 28.95 129.61 29.05Q129.63 29.15 129.66 29.36Q129.70 29.57 129.75 29.90Q129.80 30.23 129.84 30.45Q129.88 30.67 129.89 30.79Q129.90 30.90 129.90 30.90Q129.90 30.90 128.86 31.05Q127.82 31.20 126.29 31.42Q124.75 31.65 123.21 31.88Q121.67 32.10 120.64 32.25Q119.60 32.40 119.60 32.40Q119.60 32.40 119.60 32.64Q119.60 32.88 119.60 33.11Q119.60 33.35 119.60 33.35L118.65 33.35L118.65 29.70M143.70 35.85L142.75 35.85Q142.75 35.85 142.75 35.67Q142.75 35.50 142.75 35.33Q142.75 35.15 142.75 35.15Q142.75 35.15 141.74 35.30Q140.72 35.45 139.24 35.66Q137.75 35.88 136.26 36.09Q134.77 36.30 133.76 36.45Q132.75 36.60 132.75 36.60Q132.75 36.60 132.74 36.50Q132.72 36.40 132.69 36.19Q132.65 35.98 132.60 35.65Q132.55 35.33 132.51 35.10Q132.47 34.88 132.46 34.76Q132.45 34.65 132.45 34.65Q132.45 34.65 133.49 34.50Q134.52 34.35 136.06 34.13Q137.60 33.90 139.14 33.67Q140.67 33.45 141.71 33.30Q142.75 33.15 142.75 33.15Q142.75 33.15 142.75 32.91Q142.75 32.67 142.75 32.44Q142.75 32.20 142.75 32.20L143.70 32.20L143.70 35.85ZM142.25 34.75Q142.25 33.60 142.25 32.15Q142.25 30.70 142.25 29.13Q142.25 27.55 142.25 26.07Q142.25 24.60 142.25 23.40Q142.25 22.20 142.25 21.50Q142.25 20.80 142.25 20.80Q142.25 20.80 142.25 20.80Q142.25 20.80 142.25 20.80Q142.25 20.80 142.25 20.80Q142.25 20.80 142.25 20.80Q142.25 20.80 143.24 20.80Q144.22 20.80 145.76 20.80Q147.30 20.80 149.05 20.80Q150.80 20.80 152.34 20.80Q153.88 20.80 154.86 20.80Q155.85 20.80 155.85 20.80Q155.85 20.80 155.85 20.80Q155.85 20.80 155.85 20.80Q155.85 20.80 155.85 20.80Q155.85 20.80 155.85 20.80Q155.85 20.80 155.85 20.80Q155.85 21.27 155.85 21.79Q155.85 22.30 155.85 22.80Q155.72 22.80 155.03 22.80Q154.32 22.80 153.31 22.80Q152.30 22.80 151.26 22.80Q150.22 22.80 149.41 22.80Q148.60 22.80 148.30 22.80Q148.30 22.80 148.30 22.80Q148.30 22.80 148.30 22.80Q148.30 22.80 148.30 22.80Q148.30 22.80 148.30 22.80Q148.22 22.80 147.80 23.17Q147.38 23.55 146.78 24.13Q146.18 24.70 145.60 25.29Q145.03 25.88 144.64 26.30Q144.25 26.72 144.25 26.80L144.25 34.75L142.25 34.75M142.25 27.15L144.25 27.15Q144.25 28.52 144.25 29.35Q144.25 30.17 144.25 30.94Q144.25 31.70 144.25 32.90Q144.25 32.90 144.25 32.90Q144.25 32.90 144.25 32.90Q144.25 32.90 144.25 32.90Q144.25 32.90 144.25 32.90Q144.25 34.15 144.25 34.80Q144.25 35.45 144.25 35.89Q144.25 36.33 144.25 36.91Q144.25 37.50 144.25 38.65L142.25 38.65L142.25 27.15M142.25 31.05L144.25 31.05L144.25 39Q144.25 39.08 144.64 39.50Q145.03 39.92 145.60 40.51Q146.18 41.10 146.78 41.67Q147.38 42.25 147.80 42.63Q148.22 43 148.30 43Q148.30 43 148.30 43Q148.30 43 148.30 43Q148.30 43 148.30 43Q148.30 43 148.30 43Q148.60 43 149.41 43Q150.22 43 151.26 43Q152.30 43 153.31 43Q154.32 43 155.03 43Q155.72 43 155.85 43Q155.85 43.48 155.85 43.99Q155.85 44.50 155.85 45Q155.85 45 155.85 45Q155.85 45 155.85 45Q155.85 45 155.85 45Q155.85 45 155.85 45Q155.85 45 155.85 45Q155.85 45 154.86 45Q153.88 45 152.34 45Q150.80 45 149.05 45Q147.30 45 145.76 45Q144.22 45 143.24 45Q142.25 45 142.25 45Q142.25 45 142.25 45Q142.25 45 142.25 45Q142.25 45 142.25 45Q142.25 45 142.25 45Q142.25 45 142.25 44.30Q142.25 43.60 142.25 42.40Q142.25 41.20 142.25 39.73Q142.25 38.25 142.25 36.69Q142.25 35.13 142.25 33.65Q142.25 32.17 142.25 31.05M168.85 34.75L166.85 34.75L166.85 26.80Q166.85 26.72 166.46 26.30Q166.07 25.88 165.50 25.29Q164.93 24.70 164.32 24.13Q163.72 23.55 163.30 23.17Q162.88 22.80 162.80 22.80Q162.80 22.80 162.80 22.80Q162.80 22.80 162.80 22.80Q162.80 22.80 162.80 22.80Q162.80 22.80 162.80 22.80Q162.50 22.80 161.69 22.80Q160.88 22.80 159.84 22.80Q158.80 22.80 157.79 22.80Q156.78 22.80 156.07 22.80Q155.38 22.80 155.25 22.80Q155.25 22.30 155.25 21.79Q155.25 21.27 155.25 20.80Q155.25 20.80 155.25 20.80Q155.25 20.80 155.25 20.80Q155.25 20.80 155.25 20.80Q155.25 20.80 155.25 20.80Q155.25 20.80 155.25 20.80Q155.25 20.80 156.24 20.80Q157.22 20.80 158.76 20.80Q160.30 20.80 162.05 20.80Q163.80 20.80 165.34 20.80Q166.88 20.80 167.86 20.80Q168.85 20.80 168.85 20.80Q168.85 20.80 168.85 20.80Q168.85 20.80 168.85 20.80Q168.85 20.80 168.85 20.80Q168.85 20.80 168.85 20.80Q168.85 20.80 168.85 21.50Q168.85 22.20 168.85 23.40Q168.85 24.60 168.85 26.07Q168.85 27.55 168.85 29.13Q168.85 30.70 168.85 32.15Q168.85 33.60 168.85 34.75M168.85 32.55Q168.85 32.55 168.85 33.45Q168.85 34.35 168.85 35.76Q168.85 37.17 168.85 38.77Q168.85 40.38 168.85 41.79Q168.85 43.20 168.85 44.10Q168.85 45 168.85 45Q168.85 45 168.85 45Q168.85 45 168.85 45Q168.85 45 168.85 45Q168.85 45 168.85 45Q168.85 45 167.86 45Q166.88 45 165.34 45Q163.80 45 162.05 45Q160.30 45 158.76 45Q157.22 45 156.24 45Q155.25 45 155.25 45Q155.25 45 155.25 45Q155.25 45 155.25 45Q155.25 45 155.25 45Q155.25 45 155.25 45Q155.25 45 155.25 45Q155.25 44.50 155.25 43.99Q155.25 43.48 155.25 43Q155.25 43 156.43 43Q157.60 43 159.32 43Q161.05 43 162.78 43Q164.50 43 165.68 43Q166.85 43 166.85 43Q166.85 43 166.85 43Q166.85 43 166.85 43Q166.85 43 166.85 43Q166.85 43 166.85 43Q166.85 43 166.85 43Q166.85 43 166.85 43Q166.85 43 166.85 43Q166.85 43 166.85 43Q166.85 43 166.85 43Q166.85 43 166.85 43Q166.85 43 166.85 43Q166.85 43 166.85 41.95Q166.85 40.90 166.85 39.34Q166.85 37.77 166.85 36.21Q166.85 34.65 166.85 33.60Q166.85 32.55 166.85 32.55L168.85 32.55M158.75 28.95Q158.75 28.95 158.75 28.95Q158.75 28.95 158.75 28.95Q158.75 28.95 158.75 28.95Q158.75 28.95 158.75 28.95Q158.75 28.95 158.75 28.95Q158.75 28.95 158.75 28.95Q158.75 28.95 158.75 28.95Q158.90 28.95 158.93 28.97Q158.95 29 158.95 29.15Q158.95 29.42 158.95 29.69Q158.95 29.95 158.95 30.21Q158.95 30.48 158.95 30.75Q158.95 30.90 158.93 30.92Q158.90 30.95 158.75 30.95Q158.75 30.95 158.75 30.95Q158.75 30.95 158.75 30.95Q158.75 30.95 158.75 30.95Q158.75 30.95 158.75 30.95Q158.75 30.95 158.75 30.95Q158.75 30.95 158.75 30.95Q158.75 30.95 158.75 30.95Q158.75 30.95 157.81 30.95Q156.88 30.95 155.65 30.95Q154.43 30.95 153.49 30.95Q152.55 30.95 152.55 30.95Q152.55 30.95 152.55 30.95Q152.55 30.95 152.55 30.95Q152.40 30.95 152.38 30.92Q152.35 30.90 152.35 30.75Q152.35 30.48 152.35 30.21Q152.35 29.95 152.35 29.69Q152.35 29.42 152.35 29.15Q152.35 29 152.38 28.97Q152.40 28.95 152.55 28.95Q152.55 28.95 152.55 28.95Q152.55 28.95 152.55 28.95Q152.55 28.95 153.49 28.95Q154.43 28.95 155.65 28.95Q156.88 28.95 157.81 28.95Q158.75 28.95 158.75 28.95M167.80 36.85L166.85 36.85Q166.85 36.85 166.85 36.67Q166.85 36.50 166.85 36.33Q166.85 36.15 166.85 36.15Q166.85 36.15 165.84 36.30Q164.82 36.45 163.34 36.66Q161.85 36.88 160.36 37.09Q158.88 37.30 157.86 37.45Q156.85 37.60 156.85 37.60Q156.85 37.60 156.84 37.50Q156.82 37.40 156.79 37.19Q156.75 36.98 156.70 36.65Q156.65 36.33 156.61 36.10Q156.57 35.88 156.56 35.76Q156.55 35.65 156.55 35.65Q156.55 35.65 157.59 35.50Q158.63 35.35 160.16 35.13Q161.70 34.90 163.24 34.67Q164.78 34.45 165.81 34.30Q166.85 34.15 166.85 34.15Q166.85 34.15 166.85 33.91Q166.85 33.67 166.85 33.44Q166.85 33.20 166.85 33.20L167.80 33.20L167.80 36.85Z"/></g></g></svg>